<?xml version="1.0" encoding="UTF-8" standalone="no"?><!DOCTYPE svg PUBLIC "-//W3C//DTD SVG 1.1//EN" "http://www.w3.org/Graphics/SVG/1.1/DTD/svg11.dtd"><svg width="100%" height="100%" viewBox="0 0 1024 1024" version="1.1" xmlns="http://www.w3.org/2000/svg" xmlns:xlink="http://www.w3.org/1999/xlink" xml:space="preserve" xmlns:serif="http://www.serif.com/" style="fill-rule:evenodd;clip-rule:evenodd;stroke-linejoin:round;stroke-miterlimit:1.41421;"><path id="Hexagon" d="M952.889,256l-440.889,-256l-440.889,256l0,512l440.889,256l440.889,-256l0,-512Z" style="fill:#ff8700;fill-rule:nonzero;"/><g id="T3V"><path id="T3" d="M201.398,393.275l0,-12.375l185.625,0l0,12.375l-185.625,0Zm0,24.75l0,-12.375l185.625,0l0,12.375l-185.625,0Zm0,24.75l0,-12.375l185.625,0l0,12.375l-49.5,0l0,222.75l-12.375,0l0,-222.75l-12.375,0l0,222.75l-12.375,0l0,-222.75l-12.375,0l0,222.75l-12.375,0l0,-222.75l-12.375,0l0,222.75l-12.375,0l0,-222.75l-49.5,0Z" style="fill:#fff;fill-rule:nonzero;"/><path d="M491.351,603.478c-26.583,0 -49.557,-2.75 -68.922,-8.25l2.406,-11.516c15.813,4.928 37.985,7.391 66.516,7.391c16.958,0 25.437,-4.469 25.437,-13.406c0,-7.104 -8.192,-10.656 -24.578,-10.656l-37.468,0l0,-12.375l37.64,0c10.542,0 19.308,1.833 26.297,5.5c6.99,3.666 10.484,9.51 10.484,17.531c0,8.594 -3.523,15.039 -10.57,19.336c-7.047,4.297 -16.127,6.445 -27.242,6.445Zm35.75,-122.031l-11.859,-2.578c1.031,-1.719 1.546,-4.584 1.546,-8.594c0,-10.083 -8.479,-15.125 -25.437,-15.125c-28.531,0 -50.703,2.464 -66.516,7.391l-2.406,-11.516c19.365,-5.5 42.339,-8.25 68.922,-8.25c11.115,0 20.195,2.292 27.242,6.875c7.047,4.583 10.57,11.458 10.57,20.625c0,4.927 -0.687,8.651 -2.062,11.172Zm-107.078,-42.11l-2.406,-12.031c21.427,-6.187 46.005,-9.281 73.734,-9.281c17.875,0 32.771,4.669 44.687,14.008c11.917,9.338 17.875,22.086 17.875,38.242c0,6.531 -1.26,13.005 -3.781,19.422l-11.515,-4.641c1.948,-4.354 2.921,-9.281 2.921,-14.781c0,-12.604 -4.755,-22.401 -14.265,-29.391c-9.511,-6.989 -21.485,-10.484 -35.922,-10.484c-26.583,0 -50.359,2.979 -71.328,8.937Zm151.422,62.047l-10.141,-6.187c3.323,-7.906 4.984,-16.214 4.984,-24.922c0,-19.594 -7.161,-35.263 -21.484,-47.008c-14.323,-11.745 -32.141,-17.617 -53.453,-17.617c-26.24,0 -51.62,3.323 -76.141,9.969l-2.578,-12.375c23.719,-6.646 49.959,-9.969 78.719,-9.969c16.042,0 30.651,3.094 43.828,9.281c13.177,6.188 23.719,15.211 31.625,27.071c7.906,11.859 11.859,25.408 11.859,40.648c0,11.115 -2.406,21.484 -7.218,31.109Zm18.39,17.875l-8.937,-9.281c6.76,-12.26 10.14,-25.495 10.14,-39.703c0,-17.531 -4.497,-33.172 -13.492,-46.922c-8.994,-13.75 -21.026,-24.263 -36.093,-31.539c-15.068,-7.276 -31.769,-10.914 -50.102,-10.914c-28.073,0 -55.115,3.437 -81.125,10.312l-2.578,-12.375c24.979,-6.875 52.88,-10.312 83.703,-10.312c15.354,0 29.878,2.464 43.57,7.391c13.693,4.927 25.581,11.773 35.664,20.539c10.084,8.765 18.076,19.536 23.977,32.312c5.901,12.776 8.851,26.612 8.851,41.508c0,17.99 -4.526,34.318 -13.578,48.984Zm-98.484,96.594c14.437,0 26.411,-3.351 35.922,-10.055c9.51,-6.703 14.265,-16.07 14.265,-28.101c0,-11.115 -4.669,-19.794 -14.007,-26.039c-9.339,-6.245 -20.597,-9.367 -33.774,-9.367l-39.015,0l0,-12.375l39.187,0c16.615,0 30.766,4.325 42.453,12.976c11.688,8.651 17.531,20.253 17.531,34.805c0,15.698 -5.958,28.044 -17.875,37.039c-11.916,8.995 -26.812,13.492 -44.687,13.492c-27.729,0 -52.307,-3.094 -73.734,-9.281l2.406,-12.031c20.969,5.958 44.745,8.937 71.328,8.937Zm0,24.75c21.312,0 39.13,-5.7 53.453,-17.101c14.323,-11.401 21.484,-26.67 21.484,-45.805c0,-18.219 -7.018,-32.8 -21.054,-43.742c-14.037,-10.943 -30.909,-16.414 -50.617,-16.414l-39.875,0l0,-12.375l40.218,0c15.125,0 29.105,3.179 41.938,9.539c12.833,6.359 23.002,15.125 30.508,26.297c7.505,11.171 11.257,23.403 11.257,36.695c0,14.896 -3.953,28.13 -11.859,39.703c-7.906,11.573 -18.448,20.396 -31.625,26.469c-13.177,6.073 -27.786,9.109 -43.828,9.109c-28.76,0 -55,-3.323 -78.719,-9.969l2.578,-12.375c24.521,6.646 49.901,9.969 76.141,9.969Zm0,24.75c18.333,0 35.034,-3.581 50.102,-10.742c15.067,-7.162 27.099,-17.474 36.093,-30.938c8.995,-13.463 13.492,-28.789 13.492,-45.976c0,-12.604 -2.75,-24.32 -8.25,-35.149c-5.5,-10.828 -12.747,-19.822 -21.742,-26.984c-8.994,-7.161 -19.221,-12.747 -30.679,-16.758c-11.459,-4.01 -23.261,-6.015 -35.407,-6.015l-40.218,0l0,-12.375l40.906,0c14.094,0 27.643,2.349 40.648,7.046c13.006,4.698 24.464,11.172 34.375,19.422c9.912,8.25 17.847,18.534 23.805,30.852c5.958,12.318 8.937,25.638 8.937,39.961c0,19.479 -5.041,36.896 -15.125,52.25c-10.083,15.354 -23.632,27.156 -40.648,35.406c-17.016,8.25 -35.779,12.375 -56.289,12.375c-30.823,0 -58.724,-3.437 -83.703,-10.312l2.578,-12.375c26.01,6.875 53.052,10.312 81.125,10.312Z" style="fill:#fff;fill-rule:nonzero;"/><path id="v" d="M621.938,500.541l9.598,0l65.338,165.252l65.338,-165.252l9.474,0l-70.014,177.187l-9.597,0l-70.137,-177.187Zm19.072,0l9.475,0l52.541,132.89l-5.045,11.321l-56.971,-144.211Zm19.073,0l9.597,0l42.821,108.65l-4.676,12.182l-47.742,-120.832Zm19.072,0l9.474,0l33.223,84.041l-4.676,12.427l-38.021,-96.468Zm140.15,0l9.598,0l-70.137,177.187l-9.474,0l70.013,-177.187Zm-18.949,0l9.475,0l-70.137,177.187l-9.475,0l70.137,-177.187Zm-19.195,0l9.597,0l-70.136,177.187l-9.475,0l70.014,-177.187Z" style="fill:#fff;fill-rule:nonzero;"/></g></svg>