<?xml version="1.0" encoding="UTF-8" standalone="no"?><!DOCTYPE svg PUBLIC "-//W3C//DTD SVG 1.1//EN" "http://www.w3.org/Graphics/SVG/1.1/DTD/svg11.dtd"><svg width="100%" height="100%" viewBox="0 0 512 512" version="1.1" xmlns="http://www.w3.org/2000/svg" xmlns:xlink="http://www.w3.org/1999/xlink" xml:space="preserve" xmlns:serif="http://www.serif.com/" style="fill-rule:evenodd;clip-rule:evenodd;stroke-linejoin:round;stroke-miterlimit:2;"><path id="Hexagon" d="M476.444,128l-220.444,-128l-220.444,128l-0,256l220.444,128l220.444,-128l0,-256Z" style="fill:#ff8700;fill-rule:nonzero;"/><g id="Label"><g id="T3"><path d="M99.124,191.074l-0,-6.187l92.812,-0l0,6.187l-92.812,0Zm-0,12.375l-0,-6.187l92.812,-0l0,6.187l-92.812,0Zm-0,12.375l-0,-6.187l92.812,-0l0,6.187l-24.75,0l0,111.375l-6.187,0l-0,-111.375l-6.188,0l0,111.375l-6.187,0l-0,-111.375l-6.188,0l0,111.375l-6.187,0l-0,-111.375l-6.188,0l0,111.375l-6.187,0l-0,-111.375l-24.75,0Z" style="fill:#fff;fill-rule:nonzero;"/><path d="M244.1,296.176c-13.291,-0 -24.778,-1.375 -34.461,-4.125l1.203,-5.758c7.907,2.464 18.993,3.695 33.258,3.695c8.479,0 12.719,-2.234 12.719,-6.703c0,-3.552 -4.096,-5.328 -12.289,-5.328l-18.734,0l-0,-6.187l18.82,-0c5.271,-0 9.654,0.916 13.148,2.75c3.495,1.833 5.243,4.755 5.243,8.765c-0,4.297 -1.762,7.52 -5.286,9.668c-3.523,2.149 -8.063,3.223 -13.621,3.223Zm17.875,-61.016l-5.929,-1.289c0.515,-0.859 0.773,-2.292 0.773,-4.297c0,-5.041 -4.24,-7.562 -12.719,-7.562c-14.265,-0 -25.351,1.231 -33.258,3.695l-1.203,-5.758c9.683,-2.75 21.17,-4.125 34.461,-4.125c5.558,0 10.098,1.146 13.621,3.438c3.524,2.291 5.286,5.729 5.286,10.312c-0,2.464 -0.344,4.326 -1.032,5.586Zm-53.539,-21.055l-1.203,-6.015c10.714,-3.094 23.003,-4.641 36.867,-4.641c8.938,0 16.386,2.335 22.344,7.004c5.958,4.669 8.938,11.043 8.938,19.121c-0,3.266 -0.631,6.503 -1.891,9.711l-5.758,-2.32c0.974,-2.177 1.461,-4.641 1.461,-7.391c0,-6.302 -2.378,-11.2 -7.133,-14.695c-4.755,-3.495 -10.742,-5.242 -17.961,-5.242c-13.291,-0 -25.179,1.489 -35.664,4.468Zm75.711,31.024l-5.07,-3.094c1.661,-3.953 2.492,-8.107 2.492,-12.461c0,-9.797 -3.581,-17.631 -10.742,-23.504c-7.162,-5.872 -16.07,-8.808 -26.727,-8.808c-13.119,-0 -25.81,1.661 -38.07,4.984l-1.289,-6.187c11.859,-3.323 24.979,-4.985 39.359,-4.985c8.021,0 15.326,1.547 21.914,4.641c6.589,3.094 11.86,7.605 15.813,13.535c3.953,5.93 5.93,12.704 5.93,20.324c-0,5.558 -1.204,10.742 -3.61,15.555Zm9.195,8.937l-4.468,-4.64c3.38,-6.13 5.07,-12.748 5.07,-19.852c0,-8.765 -2.249,-16.586 -6.746,-23.461c-4.497,-6.875 -10.513,-12.131 -18.047,-15.769c-7.534,-3.638 -15.884,-5.457 -25.051,-5.457c-14.036,-0 -27.557,1.718 -40.562,5.156l-1.289,-6.188c12.489,-3.437 26.44,-5.156 41.851,-5.156c7.677,0 14.939,1.232 21.785,3.696c6.847,2.463 12.791,5.886 17.832,10.269c5.042,4.383 9.038,9.768 11.989,16.156c2.95,6.388 4.426,13.306 4.426,20.754c-0,8.995 -2.263,17.159 -6.79,24.492Zm-49.242,48.297c7.219,0 13.206,-1.676 17.961,-5.027c4.755,-3.352 7.133,-8.035 7.133,-14.051c0,-5.557 -2.335,-9.897 -7.004,-13.019c-4.669,-3.123 -10.298,-4.684 -16.887,-4.684l-19.507,0l-0,-6.187l19.593,-0c8.308,-0 15.383,2.162 21.227,6.488c5.844,4.325 8.766,10.126 8.766,17.402c-0,7.849 -2.98,14.022 -8.938,18.52c-5.958,4.497 -13.406,6.746 -22.344,6.746c-13.864,-0 -26.153,-1.547 -36.867,-4.641l1.203,-6.015c10.485,2.979 22.373,4.468 35.664,4.468Zm0,12.375c10.657,0 19.565,-2.85 26.727,-8.551c7.161,-5.7 10.742,-13.334 10.742,-22.902c0,-9.109 -3.509,-16.4 -10.527,-21.871c-7.019,-5.471 -15.455,-8.207 -25.309,-8.207l-19.937,0l-0,-6.187l20.109,-0c7.562,-0 14.552,1.589 20.969,4.769c6.416,3.18 11.501,7.563 15.254,13.148c3.752,5.586 5.629,11.702 5.629,18.348c-0,7.448 -1.977,14.065 -5.93,19.852c-3.953,5.786 -9.224,10.198 -15.813,13.234c-6.588,3.037 -13.893,4.555 -21.914,4.555c-14.38,-0 -27.5,-1.662 -39.359,-4.985l1.289,-6.187c12.26,3.323 24.951,4.984 38.07,4.984Zm0,12.375c9.167,0 17.517,-1.79 25.051,-5.371c7.534,-3.581 13.55,-8.737 18.047,-15.469c4.497,-6.731 6.746,-14.394 6.746,-22.988c0,-6.302 -1.375,-12.16 -4.125,-17.574c-2.75,-5.414 -6.374,-9.912 -10.871,-13.492c-4.497,-3.581 -9.611,-6.374 -15.34,-8.379c-5.729,-2.005 -11.63,-3.008 -17.703,-3.008l-20.109,0l-0,-6.187l20.453,-0c7.047,-0 13.821,1.174 20.324,3.523c6.503,2.349 12.232,5.586 17.187,9.711c4.956,4.125 8.924,9.267 11.903,15.426c2.979,6.159 4.469,12.819 4.469,19.98c-0,9.74 -2.521,18.448 -7.563,26.125c-5.042,7.677 -11.816,13.578 -20.324,17.703c-8.508,4.125 -17.889,6.188 -28.145,6.188c-15.411,-0 -29.362,-1.719 -41.851,-5.156l1.289,-6.188c13.005,3.438 26.526,5.156 40.562,5.156Z" style="fill:#fff;fill-rule:nonzero;"/></g><path id="v" d="M309.394,244.707l4.799,0l32.669,82.626l32.669,-82.626l4.737,0l-35.007,88.594l-4.799,-0l-35.068,-88.594Zm9.536,0l4.737,0l26.271,66.445l-2.523,5.661l-28.485,-72.106Zm9.536,0l4.799,0l21.41,54.325l-2.338,6.091l-23.871,-60.416Zm9.536,0l4.738,0l16.611,42.021l-2.338,6.213l-19.011,-48.234Zm70.075,0l4.799,0l-35.068,88.594l-4.737,-0l35.006,-88.594Zm-9.474,0l4.737,0l-35.068,88.594l-4.738,-0l35.069,-88.594Zm-9.598,0l4.799,0l-35.068,88.594l-4.738,-0l35.007,-88.594Z" style="fill:#fff;fill-rule:nonzero;"/></g></svg>